<svg width="24" height="24" viewBox="0 0 24 24" fill="none" xmlns="http://www.w3.org/2000/svg">
<g clip-path="url(#clip0_309_1521)">
<path d="M1.1959 0.71249C0.863089 0.829677 0.624027 1.11561 0.539652 1.48593C0.516214 1.59843 0.581839 1.92186 0.797464 2.72811C1.23809 4.40155 1.28496 4.55155 1.46309 4.7203C1.71621 4.95937 1.89903 5.02968 2.22715 5.00624C2.55996 4.98749 2.77559 4.85624 2.95371 4.5703C3.13653 4.27499 3.10371 3.97968 2.71934 2.55468C2.53184 1.85624 2.35371 1.2328 2.31621 1.16718C2.11934 0.782802 1.59903 0.571865 1.1959 0.71249Z" fill="#B39B8C"/>
<path d="M20.503 2.76562C20.278 2.80781 19.0968 3.19687 19.0452 3.24844C19.0171 3.28125 19.2608 3.70312 19.3077 3.70312C19.3265 3.70312 19.5937 3.61875 19.8983 3.51562C20.2171 3.40781 20.5968 3.30937 20.7796 3.29531C21.5812 3.225 22.378 3.7125 22.753 4.49531L22.8983 4.80469L22.9124 11.4375L22.9218 18.075L23.203 18.3516L23.489 18.6328L23.4749 11.7422C23.4608 4.07344 23.4843 4.71094 23.1468 4.06875C22.6687 3.16406 21.4968 2.59219 20.503 2.76562Z" fill="#B39B8C"/>
<path d="M16.6781 2.86875C16.5797 2.89688 16.5 2.93906 16.5 2.9625C16.5 3.06094 18.2063 5.95312 18.2625 5.95312C18.3469 5.95312 18.5906 5.625 18.7406 5.31094C18.8484 5.07656 18.8672 4.98281 18.8672 4.59375C18.8672 4.20938 18.8484 4.11094 18.7406 3.88125C18.5953 3.5625 18.3 3.23438 18.0234 3.075C17.6344 2.84531 17.0813 2.76094 16.6781 2.86875Z" fill="#B39B8C"/>
<path d="M3.45078 4.77646C3.26328 5.18896 2.78047 5.50771 2.24609 5.56865L1.96484 5.60146L3.99453 9.11709C6.01016 12.6093 6.02891 12.6374 6.42266 13.0358C6.74609 13.364 6.89609 13.4765 7.21953 13.6312C7.97891 14.0015 7.75859 13.9827 11.7195 14.0108C15.043 14.039 15.268 14.0437 15.4227 14.128C15.5117 14.1749 16.9789 15.5999 18.6805 17.2968C20.382 18.9937 21.8492 20.4187 21.9383 20.4608C22.032 20.5077 22.2008 20.5405 22.3461 20.5405C22.9555 20.5358 23.3867 19.9874 23.2508 19.3874C23.1945 19.153 23.1289 19.0827 20.0445 15.9937C16.7867 12.7218 16.5992 12.5577 15.9852 12.314C15.4414 12.0983 15.3055 12.0937 11.8133 12.0937C8.98203 12.0937 8.46641 12.0843 8.26016 12.0233C7.77266 11.878 7.73984 11.8312 5.60234 8.10928C4.52422 6.23896 3.61953 4.68271 3.59141 4.6499C3.54453 4.60303 3.51641 4.62646 3.45078 4.77646Z" fill="#B39B8C"/>
<path d="M12.1873 8.4749C11.7185 8.70459 11.7982 9.37021 12.3091 9.51084C12.5435 9.57646 13.331 9.57646 13.5654 9.51084C13.931 9.40771 14.0998 9.06084 13.9404 8.73271C13.7998 8.45146 13.6263 8.39053 12.9373 8.39053C12.4732 8.39053 12.3185 8.40928 12.1873 8.4749Z" fill="#B39B8C"/>
<path d="M10.9734 8.74687C9.83906 9.05156 9.05156 10.0734 9.04688 11.2359V11.5312H9.29531H9.54375L9.59531 11.0953C9.66094 10.5375 9.81094 10.2 10.1531 9.84375C10.4344 9.54844 10.8562 9.3 11.1609 9.25312L11.3344 9.225L11.3531 8.94844C11.3672 8.63437 11.3766 8.63906 10.9734 8.74687Z" fill="#B39B8C"/>
<path d="M10.2188 16.7624V18.9937L10.3266 18.9655C10.9828 18.778 12.0516 18.778 12.7172 18.9655C12.7922 18.989 12.7969 18.8624 12.7969 16.7624V14.5312H11.5078H10.2188V16.7624Z" fill="#B39B8C"/>
<path d="M10.8187 19.4062C9.95618 19.5515 9.13118 19.9827 8.48899 20.6296C7.96868 21.1499 7.61243 21.0937 11.5077 21.0937C13.4812 21.0937 14.9062 21.0749 14.9062 21.0515C14.9062 21.0281 14.7515 20.8499 14.5593 20.6577C13.9546 20.039 13.1952 19.6218 12.3515 19.4484C11.9156 19.3593 11.2218 19.3406 10.8187 19.4062Z" fill="#B39B8C"/>
<path d="M7.62813 21.8766C7.4875 22.1906 7.33281 22.7437 7.29063 23.0953L7.25781 23.3438H11.5094H15.7656L15.7328 23.0953C15.6813 22.7016 15.5641 22.2656 15.4094 21.9234L15.2688 21.6094H11.5094H7.75L7.62813 21.8766Z" fill="#B39B8C"/>
</g>
<defs>
<clipPath id="clip0_309_1521">
<rect width="24" height="24" fill="white"/>
</clipPath>
</defs>
</svg>
