<svg width="24" height="24" viewBox="0 0 24 24" fill="none" xmlns="http://www.w3.org/2000/svg">
<path d="M5.20215 21.4897C5.9393 22.3554 6.80719 22.794 7.62012 22.6548C7.80121 22.6231 8.0717 22.5255 8.29199 22.4175H8.29297C8.60605 22.2631 8.74592 22.153 9.125 21.7739L9.36523 21.5161C9.84028 20.974 10.2822 20.2736 10.707 19.3882L10.918 18.9302V18.9292C11.0365 18.6583 11.1685 18.3826 11.2109 18.313L11.2119 18.311C11.4378 17.9238 12.056 17.9232 12.293 18.3198L12.2949 18.3237C12.3139 18.353 12.3553 18.4337 12.4092 18.5474C12.4619 18.6586 12.5243 18.795 12.583 18.9292V18.9302C13.1468 20.1976 13.727 21.1207 14.376 21.7739C14.7551 22.1531 14.8949 22.2631 15.208 22.4175H15.209C15.4293 22.5254 15.6998 22.6231 15.8809 22.6548L16.1074 22.6792C16.6345 22.705 17.1545 22.5069 17.6602 22.1011C18.2362 21.6386 18.7994 20.9029 19.3447 19.9077C20.7495 17.3442 22.1698 12.2377 22.5674 8.32178C22.6039 7.96976 22.612 7.50562 22.5977 7.06885C22.5869 6.74215 22.5635 6.42593 22.5283 6.18018L22.4893 5.96045C22.2151 4.74388 21.6234 3.66794 20.7451 2.78955C20.2807 2.32509 19.8282 1.98329 19.2744 1.68994L19.0303 1.56689C18.4414 1.28099 18.0203 1.13495 17.4092 1.00244H17.4082C17.1077 0.939288 16.6571 0.905582 16.2178 0.901855C15.8888 0.899074 15.559 0.912613 15.2979 0.945801L15.0625 0.98584C14.5827 1.08821 14.2238 1.19321 13.833 1.35107L13.4258 1.52881C13.05 1.70093 12.7797 1.8065 12.5303 1.86963C12.2824 1.93232 12.0502 1.95361 11.75 1.95361C11.1763 1.95357 10.8028 1.86482 10.207 1.5835H10.2061C9.32206 1.17321 8.63585 0.976546 7.83984 0.919434L7.49121 0.902832C7.15366 0.894399 6.72818 0.902524 6.5459 0.929199V0.930176C5.8033 1.02073 4.96129 1.29437 4.25195 1.67041C3.12843 2.26654 2.14346 3.27308 1.57715 4.39697C1.10608 5.33055 0.933241 6.02869 0.90332 7.11865C0.873477 8.24417 1.02372 9.46836 1.46289 11.6558C1.90891 13.8732 2.48107 15.9024 3.12207 17.5903C3.76233 19.2762 4.47333 20.6291 5.20117 21.4897H5.20215ZM7.30273 21.3462C7.08002 21.345 6.83701 21.2425 6.5752 21.0249C6.31328 20.8072 6.03935 20.4799 5.75879 20.0435C5.19763 19.1704 4.61805 17.8772 4.05176 16.2036C3.46897 14.4847 2.96642 12.5298 2.63281 10.8013C2.29838 9.06844 2.13652 7.57552 2.22949 6.77393L2.25391 6.58545C2.32183 6.13848 2.45925 5.6472 2.61816 5.27881C2.94407 4.52397 3.65448 3.65715 4.33984 3.17822C5.00693 2.71004 5.86516 2.36639 6.61621 2.26318C7.00781 2.2096 7.75251 2.21731 8.1123 2.28271L8.11328 2.28369C8.60865 2.37041 8.95084 2.48072 9.64648 2.78662H9.64746C9.98968 2.9345 10.4216 3.09839 10.6113 3.14697C11.3027 3.32414 12.1983 3.32414 12.8896 3.14697H12.8887C13.0783 3.09847 13.5111 2.93457 13.8535 2.78662H13.8545C14.907 2.31887 15.5034 2.19256 16.4043 2.23389C17.7212 2.29609 18.879 2.80526 19.8105 3.73682C20.5432 4.46954 20.9942 5.30829 21.2139 6.34033L21.2412 6.48975C21.2973 6.85631 21.3041 7.35404 21.2646 7.95264C21.2196 8.63513 21.1147 9.44275 20.959 10.3237C20.6476 12.0855 20.1324 14.1384 19.4863 16.0767C19.0865 17.2761 18.78 18.0486 18.3477 18.9468V18.9478C17.8749 19.9246 17.4197 20.5985 16.9893 20.978C16.7748 21.1671 16.5709 21.2795 16.3779 21.3228C16.1871 21.3655 16.0003 21.3439 15.8154 21.2524L15.8164 21.2515C15.6139 21.1492 15.3542 20.9132 15.0781 20.5786C14.8046 20.247 14.5209 19.8273 14.2686 19.3667L14.2695 19.3657C14.1654 19.1699 13.9383 18.7035 13.7656 18.3286C13.6783 18.139 13.5796 17.9434 13.4922 17.7798C13.4491 17.6991 13.4079 17.6245 13.3711 17.562L13.2773 17.4155C12.9115 16.9352 12.3274 16.6987 11.75 16.6987C11.2448 16.6988 10.7347 16.8795 10.3701 17.2466L10.2236 17.4155C10.1741 17.4816 10.094 17.6185 10.0078 17.7798C9.96417 17.8615 9.91833 17.9515 9.87207 18.0444L9.73535 18.3286C9.16721 19.5743 8.67554 20.3632 8.17383 20.8608C7.81733 21.2173 7.5623 21.3462 7.30273 21.3462Z" fill="#B39B8C" stroke="#B39B8C" stroke-width="0.2"/>
<path d="M4.19238 7.95947C4.27472 7.95947 4.3447 7.95318 4.41406 7.92041C4.48011 7.88916 4.53737 7.83807 4.60449 7.771L4.70117 7.66846C4.72834 7.63451 4.75065 7.59925 4.76758 7.55811C4.7998 7.47957 4.81 7.38626 4.82031 7.25635H4.81934C4.88524 6.57454 5.09011 6.08579 5.47852 5.65283H5.47754C5.89444 5.19546 6.4786 4.91099 7.12988 4.854H7.13086C7.30429 4.83688 7.43863 4.81272 7.54785 4.76807C7.66087 4.72184 7.74262 4.65521 7.81543 4.56299C8.11803 4.17966 7.87967 3.60848 7.39844 3.53369L7.39551 3.53271C7.31632 3.52282 7.1038 3.52842 6.92969 3.54541V3.54639C6.44827 3.58987 6.09022 3.69356 5.6084 3.93018C4.4793 4.4866 3.70353 5.56906 3.54297 6.78564L3.51953 7.03076C3.4984 7.3437 3.50825 7.46524 3.57617 7.60107L3.57715 7.60205C3.69282 7.82334 3.93074 7.95931 4.19238 7.95947Z" fill="#B39B8C" stroke="#B39B8C" stroke-width="0.2"/>
<path d="M17.5732 14.5056C17.8015 14.7987 18.2237 14.8132 18.5107 14.5447C18.5851 14.4751 18.6356 14.4127 18.6855 14.2917C18.7323 14.1786 18.7802 14.0105 18.8555 13.7302C19.292 12.1137 19.6544 10.3632 19.8545 8.92944L19.9307 8.33569V8.33472C19.975 7.93989 19.9964 7.65298 19.9932 7.44214C19.9899 7.23414 19.9617 7.08551 19.8945 6.97729L19.8955 6.97632C19.6973 6.65431 19.2538 6.56083 18.9551 6.7937L18.9531 6.79565C18.9137 6.82814 18.8717 6.86797 18.8359 6.90601C18.8021 6.94203 18.7663 6.98311 18.7471 7.01831C18.738 7.03488 18.7323 7.05414 18.7285 7.06812C18.7241 7.08419 18.7198 7.10338 18.7158 7.12378C18.7078 7.16463 18.7002 7.21648 18.6924 7.27515C18.6768 7.39302 18.662 7.54338 18.6514 7.69702C18.5591 9.0426 18.1348 11.3139 17.6211 13.2087L17.6201 13.2097C17.5173 13.5957 17.4591 13.8425 17.4434 14.0193C17.4269 14.2051 17.4571 14.322 17.5303 14.4431L17.5732 14.5056Z" fill="#B39B8C" stroke="#B39B8C" stroke-width="0.2"/>
</svg>
