<svg width="153" height="73" viewBox="0 0 153 73" fill="none" xmlns="http://www.w3.org/2000/svg">
<path d="M69.9863 1.43381C69.5965 1.76337 68.0697 3.22997 66.5917 4.69656L63.9118 7.34961L62.6124 7.72862C58.893 8.78325 49.4563 13.1336 43.8366 16.3963C38.6067 19.4284 33.4092 23.3173 29.706 26.992C27.7407 28.9365 27.5458 29.0848 25.0933 30.4196C14.6984 36.1047 7.58437 42.7291 4.53087 49.5347C2.77673 53.4896 1.6073 57.4774 1.26622 60.7072C0.843923 64.8598 1.94838 67.8753 4.25475 68.8805C4.95316 69.1936 5.31048 69.2431 6.30125 69.1771C7.30825 69.1112 7.71431 68.9794 8.98118 68.3367C10.9302 67.348 12.1159 66.4252 17.1672 61.9431C28.4879 51.8911 34.7248 46.0083 43.1382 37.4889C49.9274 30.6008 52.8672 27.437 56.9764 22.5428C59.2828 19.8239 59.299 19.8074 59.8025 19.9557C60.5984 20.1864 61.0694 20.7302 61.0694 21.4388C61.0694 22.9218 59.9162 24.6686 55.807 29.299C54.4102 30.8975 53.9391 31.3094 52.6235 32.0839C50.3984 33.4187 47.1825 35.5609 45.1684 37.0769C42.2936 39.2356 39.5325 42.416 39.8411 43.2234C40.3446 44.5582 44.7786 41.246 52.0551 34.0778L54.8487 31.3424L58.6493 29.4309C64.3178 26.5966 69.499 24.4708 69.8726 24.8498C70.4573 25.4431 68.3621 27.8325 66.072 29.1507C60.1761 32.5453 52.6235 38.7248 52.6235 40.1419C52.6235 41.9051 58.3732 37.7196 66.6404 29.9417C68.0048 28.6564 68.427 28.3927 70.3436 27.4534C72.9423 26.2011 74.7452 25.4266 76.9379 24.6521C78.9844 23.9435 79.8777 23.7952 80.3 24.1083C80.5761 24.3225 80.5923 24.4049 80.4137 24.8498C80.1538 25.476 76.613 29.0024 75.8497 29.4144C74.7777 29.9747 70.6197 32.6771 69.3204 33.6494C67.079 35.3302 66.1207 36.5661 66.8191 36.8462C67.485 37.1099 71.1232 34.4404 76.0608 30.1065C77.6363 28.7223 82.9799 26.1681 86.407 25.1629C88.4048 24.5697 89.1681 24.4708 89.1681 24.7674C89.1681 25.2124 87.479 26.6625 85.6436 27.8325C83.5159 29.1672 80.4299 31.4577 79.3579 32.4959C78.0911 33.7318 78.5134 34.2261 80.0076 33.2704C81.307 32.43 83.5809 30.6668 85.7898 28.7882C87.9825 26.9426 89.8178 25.855 93.8296 23.993C96.6395 22.6911 97.4516 22.79 96.3309 24.3225C95.6812 25.2288 95.2914 25.5419 93.7159 26.4483C91.6694 27.6182 89.1681 29.299 88.5672 29.8758C87.9825 30.4361 87.8525 30.9799 88.3235 30.9799C89.1681 30.9634 92.449 28.8541 94.2844 27.1404C95.4863 26.0198 97.4678 24.8993 100.603 23.581C102.34 22.8395 105.573 21.7519 106.011 21.7519C106.206 21.7519 105.995 22.065 105.345 22.7241C104.663 23.4327 103.883 23.9765 102.633 24.6521C100.684 25.7067 99.2382 26.8602 99.2382 27.3875C99.2382 28.1291 100.667 27.3875 103.217 25.3112C104.095 24.5862 104.809 24.2072 106.385 23.581C110.332 22.0155 112.719 21.4058 112.719 21.9496C112.719 22.065 111.923 22.9548 110.932 23.927C109.925 24.9157 109.211 25.7397 109.308 25.7891C109.568 25.9539 110.202 25.476 111.68 23.993C113.547 22.1144 113.677 21.2575 112.086 21.2575C111.468 21.2575 107.522 22.4934 105.995 23.1525C105.751 23.2514 105.816 23.1196 106.206 22.6252C106.856 21.8013 106.823 21.3564 106.125 21.2905C105.248 21.2081 100.521 22.9054 97.8901 24.2401C96.8344 24.7839 96.6232 24.7674 97.0293 24.1907C97.1755 23.993 97.2891 23.581 97.2891 23.2844C97.2891 22.6252 96.8181 22.3616 95.9573 22.5593C95.3726 22.6911 92.92 23.7952 90.7274 24.9157C89.8503 25.3607 89.4767 25.4925 89.5579 25.3112C89.6067 25.1629 89.7041 24.9487 89.7528 24.8169C89.8665 24.5038 89.3955 24.0589 88.9245 24.0589C87.7063 24.0589 83.4834 25.4925 80.4137 26.9591L78.5621 27.8489L79.5366 26.8273C81.1446 25.1135 81.4532 24.0589 80.4786 23.581C80.0888 23.3997 79.7965 23.3832 79.0169 23.5151C77.7337 23.7458 74.3716 24.9981 71.6105 26.2835L69.3853 27.3051L69.9376 26.4812C70.3761 25.8385 70.4898 25.509 70.4573 25.0641C70.3923 24.1907 69.8563 24.0589 68.427 24.5532C66.413 25.2453 62.3363 27.025 58.9742 28.6893C57.1388 29.5957 55.7583 30.1889 55.9044 30.0406C56.0344 29.8758 56.7653 29.0189 57.5449 28.1291C60.436 24.8004 61.5567 22.9383 61.5567 21.4553C61.5567 20.4501 61.1506 19.8733 60.2248 19.5437L59.6239 19.346L60.1436 18.7033C61.2481 17.3356 64.7563 12.5074 65.2761 11.6176C66.0232 10.3652 66.478 8.98099 66.3481 8.38776C66.2344 7.87692 65.7146 7.41552 65.2598 7.41552C65.0974 7.41552 64.9675 7.34961 64.9675 7.2837C64.9675 7.06947 70.6522 1.41733 70.7497 1.53268C70.8146 1.58212 70.6522 1.9776 70.4248 2.38956C70.0188 3.08167 69.9863 3.46067 70.3111 3.46067C70.506 3.46067 71.4643 1.56564 71.4643 1.17015C71.4643 0.626358 70.8146 0.741707 69.9863 1.43381ZM65.6984 8.28889C65.9095 8.63494 65.9095 8.76677 65.6984 9.49182C65.3248 10.7277 64.6589 11.7823 62.0277 15.3088C58.7143 19.7415 59.2178 19.2801 57.7073 19.2801C56.5866 19.2801 54.1016 19.5932 52.9484 19.8898C52.6723 19.9557 54.4914 17.9783 58.3732 13.9575C64.0255 8.09114 64.2204 7.90988 64.8213 7.90988C65.2923 7.90988 65.5035 8.00875 65.6984 8.28889ZM57.5611 14.0399C54.3614 17.3356 51.6653 20.0711 51.5678 20.1205C51.4866 20.1864 50.3821 20.4995 49.1315 20.8455C43.9503 22.2133 34.0589 25.8715 30.3395 27.783C29.9172 27.9972 29.5111 28.1785 29.4462 28.1785C29.2188 28.1785 31.4439 25.9869 33.2955 24.4049C38.0707 20.3347 43.3493 16.9896 50.7232 13.3478C55.7258 10.876 62.2713 8.1241 63.1646 8.09114C63.2946 8.07467 60.777 10.7607 57.5611 14.0399ZM58.4707 19.8733C58.4707 20.0051 55.4984 23.5316 53.3544 25.9539C44.5513 35.8905 32.9219 47.2277 17.3783 61.0532C11.856 65.9638 10.4917 67.0349 8.65634 67.9248C4.92068 69.7539 2.35443 68.2049 1.76972 63.7557C1.21749 59.6031 3.78373 50.9024 6.98341 46.1236C9.8745 41.8227 15.2181 36.9945 21.3089 33.2209C23.0955 32.1169 26.5551 30.1559 26.7175 30.1559C26.7662 30.1559 26.4089 30.6503 25.9379 31.26C23.7777 33.979 21.6337 37.8679 20.5618 40.9823C19.5223 44.0473 19.0188 47.9528 19.4898 49.5841C19.9933 51.3638 21.6175 51.3638 23.6477 49.5841C24.07 49.2216 30.5831 42.5643 38.1194 34.8029L51.8277 20.6808L52.7535 20.4665C54.9624 19.9392 58.4707 19.5767 58.4707 19.8733ZM41.8876 30.1889C24.736 47.8209 22.8519 49.7324 22.1372 50.0785C20.5455 50.8695 19.9608 50.3916 19.8471 48.1999C19.6035 43.3882 22.3159 36.6485 26.7662 31.0458L28.0818 29.3814L30.8917 28.0961C36.3003 25.6243 43.4143 22.9713 48.3194 21.5871C49.57 21.241 50.6583 20.9444 50.7395 20.9444C50.8207 20.9279 46.8251 25.097 41.8876 30.1889ZM101.512 25.9374C101.512 25.9869 101.268 26.1681 100.992 26.3659L100.456 26.7284L100.944 26.2999C101.447 25.855 101.512 25.8221 101.512 25.9374ZM92.4165 28.0302C92.1079 28.3103 91.2634 28.9036 90.5487 29.3485C89.2493 30.1559 88.6321 30.4196 89.3468 29.8428C89.8178 29.4638 92.7901 27.5358 92.9038 27.5358C92.9525 27.5358 92.7251 27.7501 92.4165 28.0302ZM83.8083 29.7275C83.8083 29.7769 82.8987 30.502 80.9334 32.018C80.8197 32.1004 80.7223 32.1334 80.7223 32.0674C80.7223 31.985 83.6458 29.6781 83.7758 29.6616C83.792 29.6616 83.8083 29.6945 83.8083 29.7275ZM64.6427 31.0952C59.6239 35.7586 53.5818 40.4221 53.1595 39.9771C52.9971 39.8124 55.742 37.1758 57.7398 35.5609C60.4847 33.3692 65.2436 30.0241 65.6984 30.0076C65.7796 29.9911 65.3086 30.4855 64.6427 31.0952ZM73.592 31.5401C73.0235 32.2322 67.8423 36.0882 67.5013 36.0882C67.1277 36.0717 69.2067 34.3415 71.3831 32.8584C72.6337 32.018 73.6895 31.3094 73.722 31.3094C73.7544 31.3094 73.6895 31.4083 73.592 31.5401ZM50.3497 34.9841C46.143 39.1697 41.4328 43.0092 40.4907 43.0092C39.8573 43.0092 42.2774 40.0595 44.2264 38.4776C45.5745 37.3735 52.185 32.8255 52.4611 32.809C52.5098 32.809 51.5516 33.7812 50.3497 34.9841Z" fill="#B39B8C"/>
<path d="M145.37 18.7198C139.149 19.4449 131.239 21.4718 131.938 22.1639C131.97 22.1968 132.685 22.0156 133.529 21.7354C136.924 20.6478 141.521 19.6756 145.224 19.2801C147.79 19 147.985 18.967 147.985 18.7034C147.985 18.4232 147.92 18.4232 145.37 18.7198Z" fill="#B39B8C"/>
</svg>
