<svg width="24" height="24" viewBox="0 0 24 24" fill="none" xmlns="http://www.w3.org/2000/svg">
<g clip-path="url(#clip0_309_1543)">
<path d="M15.8219 -0.285523C15.1817 1.21192 14.0851 3.88393 14.1018 3.90063C14.1129 3.91176 14.4135 4.04537 14.7642 4.19567C15.5101 4.5074 15.6103 4.6243 15.4656 4.98057C14.6863 6.87881 14.3745 7.68598 14.4079 7.70268C14.4302 7.70825 14.8143 7.92535 15.2596 8.18699L16.0668 8.66016L16.7793 7.19612C17.169 6.39451 17.5475 5.68197 17.6088 5.61517C17.7702 5.44261 17.8982 5.45374 18.544 5.70981C19.4179 6.06051 19.8521 6.00484 20.1806 5.50384C20.3253 5.28674 21.1436 3.41076 21.3329 2.87636C21.5611 2.23062 21.4275 1.80199 20.9098 1.52365C20.754 1.44015 19.5682 0.950283 18.2768 0.427013L15.9221 -0.519325L15.8219 -0.285523Z" fill="#B39B8C"/>
<path d="M21.8674 3.80045C21.7505 3.98972 21.3887 4.95832 21.4221 4.99172C21.4499 5.00842 22.0066 5.14759 22.6635 5.28676C23.3203 5.43149 23.8937 5.55952 23.9327 5.57066C23.9661 5.58736 23.9995 5.58736 23.9995 5.57623C23.9995 5.55952 23.081 4.76349 21.9843 3.83385C21.9342 3.78932 21.8841 3.77262 21.8674 3.80045Z" fill="#B39B8C"/>
<path d="M13.7288 8.83844C13.5785 9.10564 13.2779 9.47861 12.8214 9.95735L12.1367 10.6755L13.2 11.2878C13.7845 11.6274 14.291 11.889 14.33 11.8723C14.4859 11.8166 14.9869 10.9872 15.3376 10.219C15.538 9.77921 15.6994 9.41181 15.6883 9.40624C15.6159 9.35058 14.0127 8.43764 13.9849 8.43764C13.9682 8.43764 13.8513 8.62134 13.7288 8.83844Z" fill="#B39B8C"/>
<path d="M5.8525 16.938C2.76855 20.0276 0.202302 22.6328 0.152201 22.7274C0.0241674 22.9779 -0.0147995 23.3453 0.0575676 23.6125C0.196735 24.1413 0.59197 24.4586 1.16534 24.5087C1.43811 24.5366 1.53274 24.5143 1.76098 24.3974C1.97251 24.2916 3.44769 22.8443 7.88434 18.4076C11.0963 15.1901 13.7127 12.5515 13.7015 12.5403C13.5679 12.4401 11.5862 11.3324 11.5305 11.3324C11.4916 11.3324 8.93645 13.8541 5.8525 16.938Z" fill="#B39B8C"/>
</g>
<defs>
<clipPath id="clip0_309_1543">
<rect width="24" height="24" fill="white"/>
</clipPath>
</defs>
</svg>
