<svg width="24" height="24" viewBox="0 0 24 24" fill="none" xmlns="http://www.w3.org/2000/svg">
<g clip-path="url(#clip0_309_1536)">
<path d="M11.2679 0.79678C9.4585 1.1249 8.05693 2.44678 7.60693 4.25615C7.48037 4.75303 7.49443 5.81709 7.63037 6.32803C7.846 7.13428 8.31943 7.94522 8.90537 8.50303C9.06006 8.65303 9.18193 8.78428 9.17256 8.79365C9.16319 8.80303 8.95693 8.91084 8.71318 9.02803C8.12256 9.31397 7.44756 9.76865 7.02568 10.1624L6.67881 10.4858L6.28506 10.5421C4.57881 10.7718 3.28975 12.0374 3.04131 13.7343C2.94287 14.4327 3.06943 15.2343 3.37881 15.8577C3.55693 16.214 3.871 16.6546 4.096 16.8702L4.26475 17.0343L3.92256 17.2171C2.23975 18.1312 1.10537 19.753 0.814747 21.6796C0.683497 22.528 0.749122 22.8702 1.096 23.128C1.27881 23.264 1.71943 23.264 1.90225 23.128C2.16475 22.9312 2.21631 22.8187 2.25381 22.2937C2.34756 21.1077 2.74131 20.1983 3.51006 19.3921C4.74756 18.0983 6.61318 17.6671 8.31006 18.2812C9.40693 18.6796 10.4147 19.6358 10.8741 20.714C11.0804 21.2015 11.1976 21.6843 11.2397 22.2749C11.2819 22.8187 11.3288 22.9312 11.596 23.128C11.7788 23.264 12.2194 23.264 12.4022 23.128C12.6647 22.9312 12.7163 22.8187 12.7538 22.2937C12.8476 21.1077 13.2413 20.1983 14.0101 19.3921C15.2476 18.0983 17.1132 17.6671 18.8101 18.2812C19.9069 18.6796 20.9147 19.6358 21.3741 20.714C21.5804 21.2015 21.6976 21.6843 21.7397 22.2749C21.7819 22.8187 21.8288 22.9312 22.096 23.128C22.1897 23.203 22.2929 23.2265 22.4991 23.2265C22.7944 23.2265 22.9444 23.1515 23.1272 22.9077C23.3991 22.5421 23.1647 20.9999 22.6819 19.9733C22.1522 18.839 21.1866 17.8171 20.0804 17.2171L19.7476 17.039L20.0429 16.7108C20.3944 16.3312 20.7132 15.7499 20.8679 15.2062C21.0038 14.7233 21.0179 13.7812 20.8866 13.3124C20.4835 11.8171 19.2554 10.7483 17.6944 10.5374L17.3194 10.4858L16.9726 10.1624C16.5507 9.76865 15.8757 9.31397 15.2851 9.02803C15.0413 8.91084 14.8351 8.80303 14.8257 8.79365C14.8163 8.78428 14.9382 8.65303 15.0929 8.50303C15.6741 7.9499 16.1616 7.12022 16.3632 6.35147C16.7335 4.90772 16.3163 3.28115 15.2851 2.19365C14.6382 1.50459 14.0335 1.14365 13.1007 0.881153C12.721 0.778028 11.6569 0.726467 11.2679 0.79678ZM12.6319 2.32022C13.7476 2.55459 14.6944 3.50147 14.9288 4.61709C15.3741 6.74522 13.4944 8.6249 11.3663 8.17959C10.5132 8.00147 9.71631 7.38272 9.33193 6.60928C8.89131 5.70928 8.89131 4.79053 9.33193 3.89053C9.92256 2.69522 11.296 2.03897 12.6319 2.32022ZM12.8851 9.8249C13.4522 9.90459 14.1788 10.1343 14.6757 10.3827C15.0413 10.5702 15.5147 10.8702 15.5147 10.9171C15.5101 10.9312 15.3741 11.0296 15.2054 11.1327C14.821 11.3671 14.2726 11.9343 14.0241 12.3562C13.1944 13.7577 13.3819 15.5765 14.4835 16.7483L14.7554 17.039L14.4085 17.2218C13.6444 17.6296 12.7772 18.4124 12.2851 19.1483C12.1491 19.3546 12.0179 19.5233 11.9991 19.5233C11.9804 19.5233 11.8491 19.3546 11.7132 19.1483C11.221 18.4124 10.3538 17.6296 9.58975 17.2218L9.24287 17.039L9.51475 16.7483C10.6163 15.5718 10.8085 13.7577 9.97412 12.3562C9.72569 11.9343 9.17725 11.3671 8.79287 11.1327C8.62412 11.0296 8.48818 10.9312 8.4835 10.9171C8.4835 10.8608 9.06475 10.5046 9.46787 10.3171C10.546 9.81553 11.7038 9.65147 12.8851 9.8249ZM7.28818 12.0702C8.09443 12.2812 8.71787 12.9093 8.92881 13.7202C9.2335 14.8874 8.48818 16.1155 7.28818 16.4296C6.11162 16.7343 4.8835 15.989 4.56943 14.789C4.15225 13.1812 5.68037 11.653 7.28818 12.0702ZM17.7882 12.0702C18.5944 12.2812 19.2179 12.9093 19.4288 13.7202C19.7335 14.8874 18.9882 16.1155 17.7882 16.4296C16.6116 16.7343 15.3835 15.989 15.0694 14.789C14.6522 13.1812 16.1804 11.653 17.7882 12.0702Z" fill="#B39B8C"/>
</g>
<defs>
<clipPath id="clip0_309_1536">
<rect width="24" height="24" fill="white"/>
</clipPath>
</defs>
</svg>
